<svg width="20" height="20" viewBox="0 0 20 20" fill="none" xmlns="http://www.w3.org/2000/svg">
<path d="M4.116 18.087C2.84003 17.1599 1.80182 15.9437 1.08639 14.538C0.370965 13.1324 -0.00132749 11.5772 3.55658e-06 10C3.55658e-06 4.477 4.477 0 10 0C15.523 0 20 4.477 20 10C20.0013 11.5772 19.629 13.1324 18.9136 14.538C18.1982 15.9437 17.16 17.1599 15.884 18.087L14.869 16.348C16.1954 15.3306 17.1698 13.9232 17.6552 12.3236C18.1407 10.724 18.1129 9.01247 17.5757 7.42947C17.0385 5.84648 16.0189 4.47153 14.6601 3.49776C13.3013 2.524 11.6717 2.00034 10 2.00034C8.32834 2.00034 6.69867 2.524 5.3399 3.49776C3.98114 4.47153 2.96154 5.84648 2.42434 7.42947C1.88714 9.01247 1.85932 10.724 2.34478 12.3236C2.83025 13.9232 3.80461 15.3306 5.131 16.348L4.116 18.087ZM6.15 14.602C5.20503 13.8114 4.52634 12.7491 4.20616 11.5594C3.88597 10.3696 3.9398 9.11017 4.36035 7.9521C4.78089 6.79403 5.54776 5.7935 6.55675 5.08644C7.56574 4.37939 8.76794 4.0001 10 4.0001C11.2321 4.0001 12.4343 4.37939 13.4433 5.08644C14.4523 5.7935 15.2191 6.79403 15.6397 7.9521C16.0602 9.11017 16.114 10.3696 15.7939 11.5594C15.4737 12.7491 14.795 13.8114 13.85 14.602L12.82 12.836C13.3818 12.2775 13.7651 11.5649 13.9214 10.7883C14.0777 10.0117 13.9998 9.20623 13.6978 8.47394C13.3957 7.74165 12.8831 7.11552 12.2248 6.67495C11.5664 6.23437 10.7921 5.99917 10 5.99917C9.20786 5.99917 8.43356 6.23437 7.77525 6.67495C7.11694 7.11552 6.60426 7.74165 6.30221 8.47394C6.00016 9.20623 5.92234 10.0117 6.07861 10.7883C6.23488 11.5649 6.61821 12.2775 7.18 12.836L6.15 14.602ZM9 11H11L12 20H8L9 11Z" fill="#00B6FF"/>
</svg>
