<svg width="22" height="19" viewBox="0 0 22 19" fill="none" xmlns="http://www.w3.org/2000/svg">
<path d="M2.7502 17.75C2.53353 17.5333 2.4252 17.2833 2.4252 17C2.4252 16.7166 2.53353 16.4666 2.7502 16.25L8.8002 10.2C8.9002 10.1 9.00853 10.029 9.1252 9.98695C9.24186 9.94562 9.36686 9.92495 9.5002 9.92495C9.63353 9.92495 9.75853 9.94562 9.8752 9.98695C9.99186 10.029 10.1002 10.1 10.2002 10.2L13.5002 13.5L19.9002 6.29995C20.0835 6.08328 20.3212 5.97495 20.6132 5.97495C20.9045 5.97495 21.1502 6.07495 21.3502 6.27495C21.5335 6.45828 21.6295 6.67928 21.6382 6.93795C21.6462 7.19595 21.5585 7.42495 21.3752 7.62495L14.2002 15.7C14.1002 15.8166 13.9879 15.904 13.8632 15.962C13.7379 16.0206 13.6085 16.05 13.4752 16.05C13.3419 16.05 13.2129 16.025 13.0882 15.975C12.9629 15.925 12.8502 15.85 12.7502 15.75L9.5002 12.5L4.2502 17.75C4.03353 17.9666 3.78353 18.075 3.5002 18.075C3.21686 18.075 2.96686 17.9666 2.7502 17.75ZM3.0002 11.3C2.91686 11.3 2.83353 11.279 2.7502 11.237C2.66686 11.1956 2.6002 11.125 2.5502 11.025L2.0502 9.94995L0.975195 9.44995C0.875195 9.39995 0.804529 9.33328 0.763195 9.24995C0.721195 9.16662 0.700195 9.08328 0.700195 8.99995C0.700195 8.91662 0.721195 8.83328 0.763195 8.74995C0.804529 8.66662 0.875195 8.59995 0.975195 8.54995L2.0502 8.04995L2.5502 6.97495C2.6002 6.87495 2.66686 6.80395 2.7502 6.76195C2.83353 6.72062 2.91686 6.69995 3.0002 6.69995C3.08353 6.69995 3.16686 6.72062 3.2502 6.76195C3.33353 6.80395 3.4002 6.87495 3.4502 6.97495L3.9502 8.04995L5.0252 8.54995C5.20853 8.63329 5.3002 8.78329 5.3002 8.99995C5.3002 9.21662 5.20853 9.36662 5.0252 9.44995L3.9502 9.94995L3.4502 11.025C3.4002 11.125 3.33353 11.1956 3.2502 11.237C3.16686 11.279 3.08353 11.3 3.0002 11.3ZM14.0002 9.29995C13.9169 9.29995 13.8335 9.27895 13.7502 9.23695C13.6669 9.19562 13.6002 9.12495 13.5502 9.02495L13.0502 7.94995L11.9752 7.44995C11.8752 7.39995 11.8045 7.33328 11.7632 7.24995C11.7212 7.16662 11.7002 7.08328 11.7002 6.99995C11.7002 6.91662 11.7212 6.83328 11.7632 6.74995C11.8045 6.66662 11.8752 6.59995 11.9752 6.54995L13.0502 6.04995L13.5502 4.97495C13.6002 4.87495 13.6669 4.80395 13.7502 4.76195C13.8335 4.72062 13.9169 4.69995 14.0002 4.69995C14.0835 4.69995 14.1669 4.72062 14.2502 4.76195C14.3335 4.80395 14.4002 4.87495 14.4502 4.97495L14.9502 6.04995L16.0252 6.54995C16.1252 6.59995 16.1962 6.66662 16.2382 6.74995C16.2795 6.83328 16.3002 6.91662 16.3002 6.99995C16.3002 7.08328 16.2795 7.16662 16.2382 7.24995C16.1962 7.33328 16.1252 7.39995 16.0252 7.44995L14.9502 7.94995L14.4502 9.02495C14.4002 9.12495 14.3335 9.19562 14.2502 9.23695C14.1669 9.27895 14.0835 9.29995 14.0002 9.29995ZM7.5002 6.29995C7.41686 6.29995 7.33353 6.27495 7.2502 6.22495C7.16686 6.17495 7.1002 6.09995 7.0502 5.99995L6.4002 4.59995L5.0002 3.94995C4.9002 3.89995 4.8252 3.83328 4.7752 3.74995C4.72519 3.66662 4.7002 3.58328 4.7002 3.49995C4.7002 3.41662 4.72519 3.33328 4.7752 3.24995C4.8252 3.16662 4.9002 3.09995 5.0002 3.04995L6.4002 2.39995L7.0502 0.999951C7.1002 0.899951 7.16686 0.824951 7.2502 0.774951C7.33353 0.724951 7.41686 0.699951 7.5002 0.699951C7.58353 0.699951 7.66686 0.724951 7.7502 0.774951C7.83353 0.824951 7.9002 0.899951 7.9502 0.999951L8.6002 2.39995L10.0002 3.04995C10.1002 3.09995 10.1752 3.16662 10.2252 3.24995C10.2752 3.33328 10.3002 3.41662 10.3002 3.49995C10.3002 3.58328 10.2752 3.66662 10.2252 3.74995C10.1752 3.83328 10.1002 3.89995 10.0002 3.94995L8.6002 4.59995L7.9502 5.99995C7.9002 6.09995 7.83353 6.17495 7.7502 6.22495C7.66686 6.27495 7.58353 6.29995 7.5002 6.29995Z" fill="white" fill-opacity="0.4"/>
</svg>
